<svg width="968" height="1355" viewBox="0 0 968 1355" fill="none" xmlns="http://www.w3.org/2000/svg">
<g opacity="0.15">
<path d="M631.475 921.23C618.28 870.982 606.743 827.418 587.508 733.42C528.448 717.155 473.246 704.243 409.724 680.249C367.656 721.106 327.676 764.059 289.935 808.943C301.915 872.715 321.408 934.844 348.006 994.029C401.832 1014.58 457.038 1031.32 513.215 1044.11C548.912 1003.15 571.482 980.273 629.551 922.109L631.475 921.23ZM597.782 1191.51C559.34 1156.2 526.613 1115.14 500.768 1069.8C445.761 1057.26 391.685 1040.95 338.923 1020.97C319.698 1047.44 306.083 1077.56 298.911 1109.49C336.636 1154.82 381.911 1193.29 432.739 1223.21C478.881 1237.02 526.202 1246.54 574.097 1251.63C580.169 1230.92 588.097 1210.79 597.782 1191.51ZM1209.8 466.715C1178.53 397.368 1134.12 334.741 1079.01 282.301C1058.75 265.473 1036.57 251.098 1012.93 239.478C1016.77 250.454 1018.31 262.105 1017.45 273.702C1016.59 285.299 1013.34 296.595 1007.92 306.882C1045.81 354.793 1076.05 408.277 1097.59 465.436C1139.54 488.125 1176.98 518.307 1208.05 554.488C1219.38 531.058 1221.87 504.319 1215.04 479.203L1209.94 468.045L1209.8 466.715ZM590.364 1262.8C544.104 1258.99 498.31 1250.8 453.601 1238.33C461.499 1247.84 471.854 1255.01 483.541 1259.06C509.568 1267.85 536.127 1274.97 563.057 1280.4C592.506 1286.41 622.37 1290.18 652.391 1291.66C679.454 1291.85 715.058 1291.4 743.935 1288.43C743.935 1288.43 660.175 1280.2 641.543 1277.09C622.911 1273.97 591.101 1263.39 591.101 1263.39L590.364 1262.8ZM1209.08 768.432C1215.45 705.068 1212.84 641.121 1201.34 578.484C1168.41 544.727 1130.12 516.65 1088.02 495.389C1058.51 537.922 1026.23 578.465 991.392 616.754C1003.8 679.679 1011.18 743.49 1013.48 807.584C1052.46 823.97 1088.76 846.107 1121.17 873.255C1153.58 841.234 1183.35 806.634 1210.16 769.796L1209.08 768.432ZM1059.4 1058.69C1078.66 1007.33 1092.69 954.173 1101.3 900.008C1068.3 874.511 1031.78 853.914 992.892 838.855C950.577 879.587 930.007 904.801 860.781 968.064C869.783 1056.97 873.287 1075.83 878.219 1108C909.857 1113.99 940.381 1124.83 968.715 1140.13C1052.69 1066.4 1057.83 1060.34 1059.37 1059.63L1059.4 1058.69ZM1246.62 842.438C1272.81 730.675 1265.45 613.668 1225.46 506.069C1230.83 529.58 1228.17 554.214 1217.89 576.034C1229.59 638.523 1232.13 702.378 1225.46 765.598C1239.27 797.146 1243.89 831.955 1238.79 866.015C1242.32 858.087 1245.45 849.983 1248.16 841.734L1246.62 842.438ZM931.9 1234.63C942.164 1209.4 949.318 1183.01 953.202 1156.06C924.148 1142.62 893.4 1133.2 861.805 1128.06C834.9 1152.31 809.411 1178.09 785.464 1205.27C809.297 1230.84 839.907 1249.11 873.726 1257.96C894.06 1253.75 913.57 1246.25 931.482 1235.75L931.9 1234.63ZM1145.58 1051.86C1180.98 1001.66 1208.75 946.5 1227.98 888.163C1232.51 855.155 1226.88 821.549 1211.85 791.813C1184.78 827.261 1155.4 860.886 1123.9 892.47C1112.53 948.494 1095.26 1003.16 1072.38 1055.55C1075.89 1079.58 1075.93 1104 1072.49 1128.05C1099.33 1106.62 1123.57 1082.12 1144.71 1055.05L1145.58 1051.86ZM942.574 1232.54C986.279 1208.97 1024.95 1177.08 1056.41 1138.66C1058.83 1119.72 1058.67 1100.55 1055.95 1081.66C1022.92 1111.17 1022.92 1111.17 971.791 1155C971.791 1155 954.868 1200.41 942.497 1229.32L942.574 1232.54Z" fill="url(#paint0_radial_107_90)"/>
<path d="M991.84 225.855C944.444 190.866 891.596 163.944 835.429 146.174C791.557 137.567 746.893 133.655 702.192 134.505C706.412 143.739 708.818 156.128 712.378 167.989C757.887 187.985 799.165 216.479 833.997 251.942C886.46 261.441 938.186 274.638 988.787 291.435C999.992 257.943 1001.52 235.848 993.346 226.097L991.84 225.855ZM1075.67 475.447C1054.53 417.966 1025.11 363.878 988.344 314.893C936.504 297.5 883.549 283.63 829.84 273.376C804.268 309.116 776.262 343.05 746.021 374.935C769.274 428.847 788.587 484.375 803.809 541.081C862.823 556.275 920.891 574.932 977.711 596.955C1012.62 558.475 1044.97 517.746 1074.55 475.029L1075.67 475.447ZM982.399 819.924C979.059 755.793 971.044 691.992 958.416 629.028C900.145 607.683 840.83 589.305 780.699 573.967C741.495 612.347 741.495 612.347 629.854 719.179C642.795 782.1 654.714 841.768 669.974 908.747C781.708 934.428 820.696 945.447 840.592 950.308C890.459 904.73 931.102 868.482 980.86 820.628L982.399 819.924ZM848.705 1118.69C840.542 1081.49 838.435 1060.59 825.21 978.733L647.524 939.006C596.931 989.102 569.853 1016.36 532.584 1058.97C556.066 1104.31 586.194 1145.88 621.969 1182.31C670.818 1187.42 691.131 1191.16 768.693 1198.04C793.913 1169.78 820.99 1142.52 848.453 1115.08L848.705 1118.69ZM762.348 1211.64C720.82 1208.29 674.74 1205.17 616.855 1198.6C608.553 1216.76 601.571 1235.49 595.963 1254.66C644.909 1274.24 697.325 1283.67 750.028 1282.39C786.079 1278.46 821.799 1271.92 856.909 1262.84C842.073 1260.66 827.791 1255.67 814.832 1248.12C797.277 1237.42 780.489 1225.51 764.591 1212.48L762.348 1211.64Z" fill="url(#paint1_radial_107_90)"/>
<path d="M910.686 1240.13C898.41 1245.59 885.489 1249.47 872.234 1251.66C841.499 1243.43 813.514 1227.16 791.16 1204.52C813.692 1179.64 837.457 1155.89 862.366 1133.38C891.155 1138.22 919.27 1146.45 946.125 1157.89C942.078 1182.56 935.523 1206.75 926.56 1230.09L909.631 1237.82L910.686 1240.13ZM952.757 1217.19C963.28 1192.38 974.529 1163.05 977.212 1156.71L1017.79 1122.35L1053.75 1090.11C1055.42 1105.33 1055.9 1120.67 1055.17 1135.97C1026.31 1169.1 991.592 1196.63 952.757 1217.19ZM1078.3 1113.3C1080.55 1094.89 1080.63 1076.28 1078.54 1057.85C1100.71 1005.57 1117.46 951.165 1128.52 895.474C1157.8 865.79 1185.44 834.529 1211.31 801.83C1223.29 829.273 1227.6 859.455 1223.77 889.155C1204.09 946.526 1176.24 1000.76 1141.09 1050.19C1122.84 1073.32 1101.97 1094.25 1078.9 1112.57L1078.3 1113.3ZM663.122 1287.69L649.678 1287.79C620.737 1285.66 591.977 1281.56 563.598 1275.5C537.952 1270.72 512.688 1264.07 488.007 1255.62L478.686 1251.51C515.93 1260.09 553.747 1265.97 591.839 1269.1C596.323 1270.77 622.143 1279.44 640.148 1284.23C647.684 1286.08 655.374 1287.24 663.122 1287.69ZM966.871 1133.06C939.803 1119.36 911.083 1109.19 881.42 1102.81L867.147 969.804C910.374 930.05 934.131 905.705 956.911 882.272L996.884 843.54C1033 857.971 1066.92 877.382 1097.65 901.208C1089.23 953.876 1075.62 1005.58 1057.04 1055.58L969.531 1132.78L966.871 1133.06ZM570.154 1245.06C524.383 1240.52 479.128 1231.78 434.962 1218.93C385.412 1189.26 341.232 1151.42 304.288 1107.03C311.102 1077.87 323.442 1050.28 340.639 1025.77C391.734 1045.03 444.045 1060.9 497.23 1073.27C521.858 1117 553.398 1156.46 590.628 1190.12C584.042 1203.36 578.68 1217.18 574.607 1231.4L570.154 1245.06ZM1245.36 829.524C1243.82 807.441 1238.63 785.766 1230 765.382C1237.12 702.625 1234.62 639.149 1222.58 577.148C1227.48 565.578 1230.84 553.411 1232.55 540.962C1261.13 634.524 1265.53 733.799 1245.36 829.524ZM1121.67 864.189C1091.25 839.319 1057.58 818.715 1021.59 802.949C1019.56 740.525 1012.17 678.391 999.507 617.23C1032.65 580.79 1063.11 541.999 1090.65 501.163C1130.28 522.116 1166.28 549.328 1197.24 581.75C1208.04 642.996 1210.44 705.429 1204.37 767.324C1178.66 801.486 1150.78 833.958 1120.9 864.541L1121.67 864.189ZM511.865 1039.14C457.144 1027.04 403.306 1011.24 350.724 991.855C325.063 934.452 306.143 874.268 294.345 812.508C334.341 767.719 361.517 737.625 410.638 686.341C472.159 707.993 524.844 722.521 580.716 737.917C599.666 829.255 610.015 874.292 623.903 920.967C584.418 958.274 547.015 997.725 511.865 1039.14ZM1206.51 544.026C1176.75 511.649 1142.07 484.177 1103.73 462.625C1081.81 406.374 1051.62 353.703 1014.18 306.347C1021.7 288.812 1023.7 269.403 1019.91 250.704C1039.66 261.501 1058.01 274.667 1074.57 289.91C1129.15 341.679 1173.2 403.516 1204.3 472.014L1209.4 483.172C1215.08 503.523 1213.85 525.181 1205.92 544.762L1206.51 544.026Z" fill="url(#paint2_radial_107_90)"/>
<path opacity="0.1" d="M843.105 1115.67C816.127 1140.09 790.622 1165.7 766.204 1192.68C692.249 1185.54 669.033 1183.59 625.152 1177.14C591.031 1142.14 562.196 1102.36 539.559 1059.05C575.223 1019.03 601.564 991.176 649.783 944.025L744.633 965.329L819.797 981.211L828.913 1039.83C835.317 1073.19 838.085 1091.46 843.105 1115.67ZM956.17 881.682C933.215 904.73 909.457 929.075 866.791 969.038C876.552 1052.48 879.254 1072.64 881.064 1102.05C907.475 1107.73 933.248 1116.05 957.996 1126.89C1006.79 1050.29 1041.31 965.498 1059.89 876.606C1038.96 864.044 1017.14 853.03 994.604 843.654L956.17 881.682ZM608.018 1239.38L602.971 1253.78C650.634 1270.55 701.157 1277.66 751.596 1274.7C780.615 1271.45 809.42 1266.52 837.866 1259.92C830.047 1257.18 822.386 1254 814.915 1250.41C796.011 1240.58 777.924 1229.25 760.826 1216.53C720.803 1213.42 675.526 1209 621.39 1203.51C616.202 1214.78 612.235 1226.57 609.557 1238.68L608.018 1239.38ZM975.883 588.958C1006.09 553.292 1028.38 527.76 1049.85 498.413C1037.59 452.086 1021.45 406.876 1001.58 363.267L979.424 314.788C930.62 299.508 880.914 287.273 830.593 278.153C805.604 312.062 778.358 344.248 749.039 374.491C771.449 426.628 789.943 480.364 804.365 535.25C862.126 549.761 918.958 567.744 974.553 589.101L975.883 588.958ZM831.807 151.555C791.167 143.572 749.824 139.715 708.408 140.041L710.518 144.658C713.063 151.171 715.044 157.89 716.441 164.742C761.739 184.744 802.669 213.447 836.906 249.222C876.844 256.61 916.382 266.018 955.367 277.411C932.725 239.467 906.947 203.485 878.302 169.841C863.903 164.794 848.943 159.537 832.268 154.6L831.807 151.555ZM779.737 579.062C743.084 614.882 740.918 617.267 633.191 720.449C645.462 780.887 657.447 838.664 672.982 903.191C761.808 923.527 805.106 935.833 829.2 939.706L840.094 942.169L884.475 901.888C914.982 873.993 943.533 847.923 976.448 816.137C973.086 754.11 965.251 692.406 953.003 631.507C896.166 611.121 838.338 593.618 779.737 579.062ZM352.61 991.925C405.348 1011.69 459.361 1027.88 514.279 1040.37C548.58 1001.44 570.623 977.409 626.317 922.191C613.44 873.658 602.08 830.479 583.481 739.91C527.609 724.514 476.463 709.283 413.403 688.335C363.931 738.849 337.106 769.712 298.297 813.028C309.381 874.57 327.608 934.608 352.61 991.925ZM863.417 1135.69C830.744 1165.97 814.253 1182.81 792.386 1207.22C811.327 1226.48 834.071 1241.59 859.17 1251.58C888.008 1222.69 914.311 1191.38 937.788 1157.98C913.442 1147.78 888.266 1139.68 862.538 1133.77L863.417 1135.69ZM999.612 619.509C1011.81 680.744 1019.19 742.84 1021.69 805.228C1038.44 813.386 1054.25 821.511 1069.67 829.813C1083.46 735.362 1080.61 639.227 1061.26 545.758C1043.93 564.839 1026.15 585.986 998.348 617.761L999.612 619.509ZM663.117 1287.69C654.393 1286.83 645.72 1285.51 637.132 1283.75C619.511 1278.78 593.307 1270.29 589.207 1268.45C551.101 1265.43 513.277 1259.55 476.054 1250.85L485.375 1254.97C510.88 1263.81 537.031 1270.68 563.594 1275.5C592.219 1281.56 621.244 1285.55 650.443 1287.44L663.117 1287.69ZM569.38 1245.41L575.13 1232.55C579.203 1218.34 584.565 1204.52 591.151 1191.28C553.825 1157.52 522.224 1117.93 497.577 1074.04C444.457 1061.8 392.205 1046.06 341.162 1026.92C323.774 1050.97 311.246 1078.18 304.284 1107.03C341.164 1150.97 385.158 1188.41 434.43 1217.78C478.73 1231.05 524.164 1240.18 570.149 1245.06L569.38 1245.41Z" fill="#F1F2F3"/>
<path opacity="0.1" d="M928.201 572.145C886.86 558.015 851.62 548.073 805.311 535.283C790.653 480.485 771.902 426.866 749.215 374.876C778.534 344.633 805.781 312.447 830.769 278.538C855.136 282.535 879.279 287.803 903.096 294.321C928.844 384.53 937.36 478.782 928.201 572.145ZM708.409 140.041L710.518 144.658C713.063 151.171 715.045 157.89 716.441 164.742C761.739 184.744 802.669 213.447 836.906 249.222C854.944 253.072 871.652 257.064 891.02 260.771C883.273 238.73 874.548 217.602 864.702 196.056L847.119 157.58L833.456 153.127C792.317 144.586 750.424 140.202 708.409 140.041ZM556.42 1155.99C534.121 1130.89 514.462 1103.55 497.753 1074.43C444.568 1062.06 392.257 1046.19 341.162 1026.92C323.911 1051.05 311.397 1078.23 304.284 1107.03C339.222 1149.03 380.807 1185.01 427.385 1213.56C448.546 1203.89 470.938 1196.91 492.1 1187.24C513.261 1177.57 535.753 1167.76 556.42 1155.99ZM352.61 991.925C405.348 1011.69 459.361 1027.88 514.279 1040.37C548.58 1001.44 570.623 977.409 626.317 922.191C613.44 873.658 602.08 830.479 583.481 739.91C527.609 724.514 476.464 709.283 413.403 688.335C363.931 738.849 337.106 769.712 298.297 813.028C309.381 874.57 327.608 934.608 352.61 991.925ZM635.752 723C648.023 783.437 660.008 841.215 675.543 905.742C735.263 919.38 773.933 928.684 800.203 935.283C864.213 842.262 906.431 736.009 923.72 624.424C884.446 610.745 847.381 598.846 781.913 581.789C743.853 614.53 741.688 616.915 632.806 720.625L635.752 723ZM651.332 948.433C603.675 995.793 576.773 1023.44 541.108 1063.45C555.96 1088.58 572.306 1112.8 590.059 1135.97C659.124 1091.04 720.257 1034.97 770.97 970.037L744.809 965.714L651.332 948.433Z" fill="#F1F2F3"/>
</g>
<defs>
<radialGradient id="paint0_radial_107_90" cx="0" cy="0" r="1" gradientUnits="userSpaceOnUse" gradientTransform="translate(772.904 828.692) rotate(-24.5599) scale(495.364 495.364)">
<stop stop-color="#FCEA0D"/>
<stop offset="0.07" stop-color="#FAD90D"/>
<stop offset="0.53" stop-color="#ED6910"/>
<stop offset="0.85" stop-color="#E52212"/>
<stop offset="1" stop-color="#E20613"/>
</radialGradient>
<radialGradient id="paint1_radial_107_90" cx="0" cy="0" r="1" gradientUnits="userSpaceOnUse" gradientTransform="translate(775.912 699.873) rotate(-24.5599) scale(475.905 475.905)">
<stop stop-color="#FCEA0D"/>
<stop offset="0.07" stop-color="#FAD90D"/>
<stop offset="0.53" stop-color="#ED6910"/>
<stop offset="0.85" stop-color="#E52212"/>
<stop offset="1" stop-color="#E20613"/>
</radialGradient>
<radialGradient id="paint2_radial_107_90" cx="0" cy="0" r="1" gradientUnits="userSpaceOnUse" gradientTransform="translate(835.947 828.252) rotate(-24.5599) scale(412.451 412.451)">
<stop stop-color="#FCEA0D"/>
<stop offset="0.07" stop-color="#FAD90D"/>
<stop offset="0.53" stop-color="#ED6910"/>
<stop offset="0.85" stop-color="#E52212"/>
<stop offset="1" stop-color="#E20613"/>
</radialGradient>
</defs>
</svg>
